<?xml version="1.0" encoding="UTF-8"?>
<svg width="187px" height="125px" viewBox="0 0 187 125" version="1.1" xmlns="http://www.w3.org/2000/svg" xmlns:xlink="http://www.w3.org/1999/xlink">
    <!-- Generator: Sketch 51.2 (57519) - http://www.bohemiancoding.com/sketch -->
    <title>Binary</title>
    <desc>Created with Sketch.</desc>
    <defs></defs>
    <g id="Step-1" stroke="none" stroke-width="1" fill="none" fill-rule="evenodd">
        <g id="Desktop-HD" transform="translate(-628.000000, -507.000000)">
            <g id="Binary" transform="translate(628.000000, 507.000000)">
                <rect id="Rectangle-4-Copy-2" fill="#F5F5F5" x="0" y="0" width="187" height="125" rx="17"></rect>
                <g id="thumbs-up-regular" transform="translate(110.000000, 30.000000)" fill="#0D849F" fill-rule="nonzero">
                    <path d="M50.5125833,36.3961914 C51.4626667,34.5109375 52,32.5 52,30.0688477 C52,24.4810059 47.96805,19.2041992 42.7028333,19.2041992 L38.7508333,19.2041992 C39.2838333,17.5779297 39.7095833,15.6330078 39.7095833,13.2958008 C39.7095833,4.054375 35.6265,0 29.3886667,0 C22.714575,0 23.0952583,12.052041 21.6146667,13.7871094 C19.1504083,16.6749121 16.2397083,22.2227637 14.1656667,24.375 L3.46666667,24.375 C1.55209167,24.375 0,26.1938574 0,28.4375 L0,58.90625 C0,61.1498926 1.55209167,62.96875 3.46666667,62.96875 L10.4,62.96875 C12.0134083,62.96875 13.3692,61.6771289 13.75595,59.9282227 C18.5777583,60.0553027 21.88745,64.9987305 33.0178333,64.9987305 C33.8,64.9987305 34.6666667,65 35.425,65 C43.7793417,65 47.5568167,59.995127 47.6601667,52.8975586 C49.1030583,50.5584473 49.859225,47.4230859 49.5386667,44.3929687 C50.6061833,42.0504297 51.0189333,39.2712988 50.5125833,36.3961914 Z M43.823,43.2300781 C45.1836667,45.9125977 43.9595,49.502832 42.3128333,50.5387695 C43.147,56.731543 40.4053,58.9049805 36.5581667,58.9049805 L32.461,58.9049805 C24.7001083,58.9049805 19.674525,54.1036133 13.8666667,54.1036133 L13.8666667,30.46875 L15.0496667,30.46875 C18.122,30.46875 22.4141667,21.469043 25.2915,18.0958984 C28.3638333,14.4955078 27.3400833,8.49443359 29.3886667,6.09375 C34.5095833,6.09375 34.5095833,10.2806641 34.5095833,13.2958008 C34.5095833,18.2685547 31.43725,20.496582 31.43725,25.2979492 L42.7028333,25.2979492 C44.98975,25.2979492 46.79025,27.6986328 46.8,30.0993164 C46.80975,32.4987305 45.4111667,34.8994141 44.3874167,34.8994141 C45.848725,36.7472168 46.1609417,40.6422656 43.823,43.2300781 Z M9.53333333,54.84375 C9.53333333,56.5265137 8.36929167,57.890625 6.93333333,57.890625 C5.497375,57.890625 4.33333333,56.5265137 4.33333333,54.84375 C4.33333333,53.1609863 5.497375,51.796875 6.93333333,51.796875 C8.36929167,51.796875 9.53333333,53.1609863 9.53333333,54.84375 Z" id="Shape"></path>
                </g>
                <g id="thumbs-up-regular-copy" transform="translate(55.000000, 62.500000) scale(-1, -1) translate(-55.000000, -62.500000) translate(29.000000, 30.000000)" fill="#5D5855" fill-rule="nonzero">
                    <path d="M50.5125833,36.3961914 C51.4626667,34.5109375 52,32.5 52,30.0688477 C52,24.4810059 47.96805,19.2041992 42.7028333,19.2041992 L38.7508333,19.2041992 C39.2838333,17.5779297 39.7095833,15.6330078 39.7095833,13.2958008 C39.7095833,4.054375 35.6265,0 29.3886667,0 C22.714575,0 23.0952583,12.052041 21.6146667,13.7871094 C19.1504083,16.6749121 16.2397083,22.2227637 14.1656667,24.375 L3.46666667,24.375 C1.55209167,24.375 0,26.1938574 0,28.4375 L0,58.90625 C0,61.1498926 1.55209167,62.96875 3.46666667,62.96875 L10.4,62.96875 C12.0134083,62.96875 13.3692,61.6771289 13.75595,59.9282227 C18.5777583,60.0553027 21.88745,64.9987305 33.0178333,64.9987305 C33.8,64.9987305 34.6666667,65 35.425,65 C43.7793417,65 47.5568167,59.995127 47.6601667,52.8975586 C49.1030583,50.5584473 49.859225,47.4230859 49.5386667,44.3929687 C50.6061833,42.0504297 51.0189333,39.2712988 50.5125833,36.3961914 Z M43.823,43.2300781 C45.1836667,45.9125977 43.9595,49.502832 42.3128333,50.5387695 C43.147,56.731543 40.4053,58.9049805 36.5581667,58.9049805 L32.461,58.9049805 C24.7001083,58.9049805 19.674525,54.1036133 13.8666667,54.1036133 L13.8666667,30.46875 L15.0496667,30.46875 C18.122,30.46875 22.4141667,21.469043 25.2915,18.0958984 C28.3638333,14.4955078 27.3400833,8.49443359 29.3886667,6.09375 C34.5095833,6.09375 34.5095833,10.2806641 34.5095833,13.2958008 C34.5095833,18.2685547 31.43725,20.496582 31.43725,25.2979492 L42.7028333,25.2979492 C44.98975,25.2979492 46.79025,27.6986328 46.8,30.0993164 C46.80975,32.4987305 45.4111667,34.8994141 44.3874167,34.8994141 C45.848725,36.7472168 46.1609417,40.6422656 43.823,43.2300781 Z M9.53333333,54.84375 C9.53333333,56.5265137 8.36929167,57.890625 6.93333333,57.890625 C5.497375,57.890625 4.33333333,56.5265137 4.33333333,54.84375 C4.33333333,53.1609863 5.497375,51.796875 6.93333333,51.796875 C8.36929167,51.796875 9.53333333,53.1609863 9.53333333,54.84375 Z" id="Shape"></path>
                </g>
            </g>
        </g>
    </g>
</svg>