<?xml version="1.0" encoding="UTF-8"?>
<svg width="47px" height="26px" viewBox="0 0 47 26" version="1.1" xmlns="http://www.w3.org/2000/svg" xmlns:xlink="http://www.w3.org/1999/xlink">
    <!-- Generator: Sketch 51.2 (57519) - http://www.bohemiancoding.com/sketch -->
    <title>Group 4</title>
    <desc>Created with Sketch.</desc>
    <defs></defs>
    <g id="Admin-new-poll" stroke="none" stroke-width="1" fill="none" fill-rule="evenodd">
        <g id="Desktop-HD" transform="translate(-646.000000, -347.000000)" fill="#5D5855" fill-rule="nonzero">
            <g id="Nav" transform="translate(375.000000, 328.000000)">
                <g id="Group-6" transform="translate(269.000000, 19.000000)">
                    <g id="Group-4" transform="translate(0.883621, 0.000000)">
                        <g id="thumbs-up-regular" transform="translate(29.605664, 1.300000)">
                            <path d="M17.6480683,13.1026289 C17.9800081,12.4239375 18.1677414,11.7 18.1677414,10.8247852 C18.1677414,8.81316211 16.7590601,6.91351172 14.9195006,6.91351172 L13.5387523,6.91351172 C13.7249716,6.32805469 13.87372,5.62788281 13.87372,4.78648828 C13.87372,1.459575 12.4471738,0 10.2678018,0 C7.93601009,0 8.06901309,4.33873477 7.55172451,4.96335938 C6.69076281,6.00296836 5.67382349,8.00019492 4.94919555,8.775 L1.21118276,8.775 C0.542269231,8.775 0,9.42978867 0,10.2375 L0,21.20625 C0,22.0139613 0.542269231,22.66875 1.21118276,22.66875 L3.63354828,22.66875 C4.19724031,22.66875 4.67092631,22.2037664 4.80604889,21.5741602 C6.49069056,21.619909 7.64702945,23.399543 11.5357588,23.399543 C11.8090319,23.399543 12.1118276,23.4 12.3767738,23.4 C15.2956107,23.4 16.6153836,21.5982457 16.651492,19.0431211 C17.155609,18.201041 17.4197982,17.0723109 17.3078016,15.9814688 C17.6807702,15.1381547 17.8249767,14.1376676 17.6480683,13.1026289 Z M15.3108641,15.5628281 C15.7862533,16.5285352 15.3585544,17.8210195 14.7832426,18.193957 C15.0746834,20.4233555 14.1167893,21.205793 12.7726792,21.205793 L11.3412126,21.205793 C8.62971501,21.205793 6.87387851,19.4773008 4.84473104,19.4773008 L4.84473104,10.96875 L5.25804716,10.96875 C6.33145788,10.96875 7.83105353,7.72885547 8.83633522,6.51452344 C9.90974594,5.21838281 9.55206853,3.05799609 10.2678018,2.19375 C12.0569459,2.19375 12.0569459,3.70103906 12.0569459,4.78648828 C12.0569459,6.57667969 10.9835352,7.37876953 10.9835352,9.10726172 L14.9195006,9.10726172 C15.7185028,9.10726172 16.3475608,9.97150781 16.3509673,10.8357539 C16.3543737,11.699543 15.8657372,12.5637891 15.5080598,12.5637891 C16.0186111,13.228998 16.1276933,14.6312156 15.3108641,15.5628281 Z M3.33075259,19.74375 C3.33075259,20.3495449 2.92406013,20.840625 2.42236552,20.840625 C1.92067091,20.840625 1.51397845,20.3495449 1.51397845,19.74375 C1.51397845,19.1379551 1.92067091,18.646875 2.42236552,18.646875 C2.92406013,18.646875 3.33075259,19.1379551 3.33075259,19.74375 Z" id="Shape"></path>
                        </g>
                        <g id="thumbs-up-regular-copy" transform="translate(11.157277, 13.000000) scale(-1, -1) translate(-11.157277, -13.000000) translate(0.657277, 0.000000)">
                            <path d="M19.8540768,14.5584766 C20.2275091,13.804375 20.4387091,13 20.4387091,12.0275391 C20.4387091,9.79240234 18.8539427,7.68167969 16.7844382,7.68167969 L15.2310963,7.68167969 C15.4405931,7.03117188 15.607935,6.25320313 15.607935,5.31832031 C15.607935,1.62175 14.0030706,0 11.5512771,0 C8.92801135,0 9.07763973,4.82081641 8.49569007,5.51484375 C7.52710816,6.66996484 6.38305142,8.88910547 5.567845,9.75 L1.3625806,9.75 C0.610052885,9.75 0,10.477543 0,11.375 L0,23.5625 C0,24.459957 0.610052885,25.1875 1.3625806,25.1875 L4.08774181,25.1875 C4.72189534,25.1875 5.2547921,24.6708516 5.406805,23.9712891 C7.30202688,24.0221211 8.60290813,25.9994922 12.9777286,25.9994922 C13.2851609,25.9994922 13.625806,26 13.9238706,26 C17.2075621,26 18.6923065,23.9980508 18.7329285,21.1590234 C19.3000601,20.2233789 19.597273,18.9692344 19.4712768,17.7571875 C19.8908665,16.8201719 20.0530988,15.7085195 19.8540768,14.5584766 Z M17.2247221,17.2920313 C17.759535,18.3650391 17.2783737,19.8011328 16.6311479,20.2155078 C16.9590188,22.6926172 15.8813879,23.5619922 14.3692641,23.5619922 L12.7588641,23.5619922 C9.70842939,23.5619922 7.73311332,21.6414453 5.45032242,21.6414453 L5.45032242,12.1875 L5.91530305,12.1875 C7.12289011,12.1875 8.80993522,8.58761719 9.94087712,7.23835938 C11.1484642,5.79820313 10.7460771,3.39777344 11.5512771,2.4375 C13.5640641,2.4375 13.5640641,4.11226563 13.5640641,5.31832031 C13.5640641,7.30742188 12.3564771,8.19863281 12.3564771,10.1191797 L16.7844382,10.1191797 C17.6833156,10.1191797 18.3910059,11.0794531 18.3948382,12.0397266 C18.3986704,12.9994922 17.8489543,13.9597656 17.4465672,13.9597656 C18.0209375,14.6988867 18.1436549,16.2569063 17.2247221,17.2920313 Z M3.74709666,21.9375 C3.74709666,22.6106055 3.28956764,23.15625 2.72516121,23.15625 C2.16075477,23.15625 1.70322576,22.6106055 1.70322576,21.9375 C1.70322576,21.2643945 2.16075477,20.71875 2.72516121,20.71875 C3.28956764,20.71875 3.74709666,21.2643945 3.74709666,21.9375 Z" id="Shape"></path>
                        </g>
                    </g>
                </g>
            </g>
        </g>
    </g>
</svg>